<svg xmlns="http://www.w3.org/2000/svg" width="167.73" height="159.94" viewBox="0 0 167.73 159.94"><rect y="16.44" width="167.73" height="143.5" fill="#8e8883"/><rect width="167.73" height="143.5" fill="#bab3ab"/><rect x="3.04" y="3.06" width="161.64" height="137.39" fill="#d6cec8"/><rect x="143.13" y="64.39" width="3.83" height="3.83" transform="translate(111.54 -89.62) rotate(53.3)" fill="#bab3ab"/><rect x="17.96" y="85.06" width="3.83" height="3.83" transform="translate(77.74 19.06) rotate(53.3)" fill="#bab3ab"/><rect x="56.96" y="36.04" width="3.83" height="3.83" transform="translate(54.13 -31.93) rotate(53.3)" fill="#bab3ab"/><rect x="107.77" y="95.69" width="3.83" height="3.83" transform="translate(122.41 -48.67) rotate(53.3)" fill="#bab3ab"/><rect x="86.3" y="34.13" width="3.83" height="3.83" transform="translate(124.26 -52.17) rotate(90)" fill="#bab3ab"/><rect x="107.77" y="122.56" width="3.83" height="3.83" transform="translate(234.16 14.79) rotate(90)" fill="#bab3ab"/><rect x="21.77" y="130.19" width="3.83" height="3.83" transform="translate(155.8 108.42) rotate(90)" fill="#bab3ab"/><rect x="45.82" y="12.58" width="3.83" height="3.83" transform="translate(62.23 -33.25) rotate(90)" fill="#bab3ab"/><rect x="86.3" y="109.56" width="3.83" height="3.83" transform="translate(199.69 23.26) rotate(90)" fill="#bab3ab"/><rect x="122.77" y="53.72" width="3.83" height="3.83" transform="translate(180.33 -69.05) rotate(90)" fill="#bab3ab"/><rect x="72.12" y="80.53" width="3.83" height="3.83" transform="translate(184.04 69.06) rotate(124.99)" fill="#bab3ab"/><rect x="53.19" y="54.89" width="3.83" height="3.83" transform="translate(133.24 44.24) rotate(124.99)" fill="#bab3ab"/><rect x="148.87" y="98.36" width="3.83" height="3.83" transform="translate(319.41 34.26) rotate(124.99)" fill="#bab3ab"/><rect x="50.52" y="91.71" width="3.83" height="3.83" transform="translate(159.21 104.37) rotate(124.99)" fill="#bab3ab"/><rect x="17.96" y="33.06" width="3.83" height="3.83" transform="translate(59.93 38.74) rotate(124.99)" fill="#bab3ab"/><rect x="131.63" y="21.39" width="3.83" height="3.83" transform="translate(229.22 -72.74) rotate(124.99)" fill="#bab3ab"/><rect x="49.27" y="72.72" width="3.83" height="3.83" transform="translate(80.45 -11) rotate(53.3)" fill="#e5dcd6"/><rect x="66.16" y="14.53" width="3.83" height="3.83" transform="translate(40.58 -47.97) rotate(53.3)" fill="#e5dcd6"/><rect x="27.94" y="58.32" width="3.83" height="3.83" transform="translate(60.31 0.3) rotate(53.3)" fill="#e5dcd6"/><rect x="116.6" y="34.13" width="3.83" height="3.83" transform="translate(154.56 -82.48) rotate(90)" fill="#e5dcd6"/><rect x="94.3" y="48.89" width="3.83" height="3.83" transform="translate(147.02 -45.41) rotate(90)" fill="#e5dcd6"/><rect x="148.87" y="9.91" width="3.83" height="3.83" transform="translate(162.61 -138.96) rotate(90)" fill="#e5dcd6"/><rect x="58.88" y="130.19" width="3.83" height="3.83" transform="translate(192.91 71.31) rotate(90)" fill="#e5dcd6"/><rect x="17.1" y="15.53" width="3.83" height="3.83" transform="translate(36.46 -1.58) rotate(90)" fill="#e5dcd6"/><rect x="31.03" y="109.56" width="3.83" height="3.83" transform="translate(144.42 78.52) rotate(90)" fill="#e5dcd6"/><rect x="76.3" y="54.89" width="3.83" height="3.83" transform="translate(169.6 25.31) rotate(124.99)" fill="#e5dcd6"/><rect x="126.27" y="78.53" width="3.83" height="3.83" transform="translate(267.6 21.56) rotate(124.99)" fill="#e5dcd6"/><rect x="105.85" y="7.99" width="3.83" height="3.83" transform="translate(177.69 -72.7) rotate(124.99)" fill="#e5dcd6"/><rect x="143.13" y="121.8" width="3.83" height="3.83" transform="translate(329.58 75.84) rotate(124.99)" fill="#e5dcd6"/><rect x="144.3" y="33.89" width="3.83" height="3.83" transform="translate(259.4 -63.44) rotate(124.99)" fill="#e5dcd6"/><rect x="94.3" y="93.03" width="3.83" height="3.83" transform="translate(229.17 70.57) rotate(124.99)" fill="#e5dcd6"/></svg>