<svg xmlns="http://www.w3.org/2000/svg" width="167.73" height="179.16" viewBox="0 0 167.73 179.16"><rect y="35.66" width="167.73" height="143.5" fill="#8e8883"/><rect width="167.73" height="162.71" fill="#bab3ab"/><rect x="3.04" y="3.06" width="161.64" height="156.6" fill="#d6cec8"/><rect x="143.13" y="83.6" width="3.83" height="3.83" transform="translate(126.94 -81.89) rotate(53.3)" fill="#bab3ab"/><rect x="17.96" y="104.27" width="3.83" height="3.83" transform="translate(93.14 26.79) rotate(53.3)" fill="#bab3ab"/><rect x="56.96" y="46.65" width="3.83" height="3.83" transform="translate(62.63 -27.67) rotate(53.3)" fill="#bab3ab"/><rect x="107.77" y="114.91" width="3.83" height="3.83" transform="translate(137.81 -40.93) rotate(53.3)" fill="#bab3ab"/><rect x="86.3" y="53.34" width="3.83" height="3.83" transform="translate(143.47 -32.95) rotate(90)" fill="#bab3ab"/><rect x="122.77" y="9.62" width="3.83" height="3.83" transform="translate(136.22 -113.15) rotate(90)" fill="#bab3ab"/><rect x="107.77" y="141.77" width="3.83" height="3.83" transform="translate(253.37 34) rotate(90)" fill="#bab3ab"/><rect x="21.77" y="149.41" width="3.83" height="3.83" transform="translate(175.01 127.64) rotate(90)" fill="#bab3ab"/><rect x="40.16" y="26.1" width="3.83" height="3.83" transform="translate(70.09 -14.05) rotate(90)" fill="#bab3ab"/><rect x="86.3" y="128.77" width="3.83" height="3.83" transform="translate(218.9 42.47) rotate(90)" fill="#bab3ab"/><rect x="122.77" y="72.94" width="3.83" height="3.83" transform="translate(199.54 -49.83) rotate(90)" fill="#bab3ab"/><rect x="72.12" y="99.74" width="3.83" height="3.83" transform="translate(199.78 99.3) rotate(124.99)" fill="#bab3ab"/><rect x="53.19" y="74.1" width="3.83" height="3.83" transform="translate(148.98 74.47) rotate(124.99)" fill="#bab3ab"/><rect x="148.87" y="117.58" width="3.83" height="3.83" transform="translate(335.15 64.49) rotate(124.99)" fill="#bab3ab"/><rect x="50.52" y="110.93" width="3.83" height="3.83" transform="translate(174.95 134.6) rotate(124.99)" fill="#bab3ab"/><rect x="17.96" y="52.27" width="3.83" height="3.83" transform="translate(75.67 68.97) rotate(124.99)" fill="#bab3ab"/><rect x="131.63" y="40.6" width="3.83" height="3.83" transform="translate(244.97 -42.5) rotate(124.99)" fill="#bab3ab"/><rect x="49.27" y="91.94" width="3.83" height="3.83" transform="translate(95.85 -3.27) rotate(53.3)" fill="#e5dcd6"/><rect x="68.84" y="23.78" width="3.83" height="3.83" transform="translate(49.08 -46.4) rotate(53.3)" fill="#e5dcd6"/><rect x="27.94" y="77.54" width="3.83" height="3.83" transform="translate(75.72 8.04) rotate(53.3)" fill="#e5dcd6"/><rect x="116.6" y="53.34" width="3.83" height="3.83" transform="translate(173.78 -63.26) rotate(90)" fill="#e5dcd6"/><rect x="94.3" y="68.1" width="3.83" height="3.83" transform="translate(166.23 -26.19) rotate(90)" fill="#e5dcd6"/><rect x="86.3" y="13.52" width="3.83" height="3.83" transform="translate(103.65 -72.78) rotate(90)" fill="#e5dcd6"/><rect x="148.87" y="29.12" width="3.83" height="3.83" transform="translate(181.82 -119.75) rotate(90)" fill="#e5dcd6"/><rect x="58.88" y="149.41" width="3.83" height="3.83" transform="translate(212.12 90.53) rotate(90)" fill="#e5dcd6"/><rect x="17.1" y="34.74" width="3.83" height="3.83" transform="translate(55.68 17.64) rotate(90)" fill="#e5dcd6"/><rect x="31.03" y="128.77" width="3.83" height="3.83" transform="translate(163.63 97.74) rotate(90)" fill="#e5dcd6"/><rect x="76.3" y="74.1" width="3.83" height="3.83" transform="translate(185.35 55.54) rotate(124.99)" fill="#e5dcd6"/><rect x="26.36" y="13.09" width="3.83" height="3.83" transform="translate(56.78 0.45) rotate(124.99)" fill="#e5dcd6"/><rect x="126.27" y="97.74" width="3.83" height="3.83" transform="translate(283.34 51.8) rotate(124.99)" fill="#e5dcd6"/><rect x="105.85" y="27.2" width="3.83" height="3.83" transform="translate(193.43 -42.47) rotate(124.99)" fill="#e5dcd6"/><rect x="143.13" y="141.02" width="3.83" height="3.83" transform="translate(345.32 106.07) rotate(124.99)" fill="#e5dcd6"/><rect x="144.3" y="53.1" width="3.83" height="3.83" transform="translate(275.14 -33.21) rotate(124.99)" fill="#e5dcd6"/><rect x="94.3" y="112.24" width="3.83" height="3.83" transform="translate(244.91 100.8) rotate(124.99)" fill="#e5dcd6"/></svg>