<svg xmlns="http://www.w3.org/2000/svg" width="1002.04" height="753" viewBox="0 0 1002.04 753"><rect width="1002.04" height="465.81" fill="#7fdfef"/><rect x="443.5" y="30.95" width="205.74" height="412.3" fill="#96b28d"/><rect x="462.47" y="57.33" width="49.2" height="32.67" fill="#77916d"/><rect x="578.03" y="57.33" width="49.2" height="32.67" fill="#77916d"/><rect x="462.47" y="121.86" width="49.2" height="32.67" fill="#77916d"/><rect x="578.03" y="121.86" width="49.2" height="32.67" fill="#77916d"/><rect x="462.47" y="186.09" width="49.2" height="32.67" fill="#77916d"/><rect x="578.03" y="186.09" width="49.2" height="32.67" fill="#77916d"/><rect x="462.47" y="249.05" width="49.2" height="32.67" fill="#77916d"/><rect x="578.03" y="249.05" width="49.2" height="32.67" fill="#77916d"/><rect x="536.33" y="57.33" width="18.33" height="214.11" fill="#77916d"/><rect y="176.08" width="264.46" height="306" fill="#e5a3b9"/><rect x="165.28" y="211.55" width="67.06" height="59.9" fill="#bf829a"/><rect x="63.92" y="211.55" width="67.06" height="59.9" fill="#bf829a"/><rect y="211.55" width="30.64" height="59.9" fill="#bf829a"/><rect x="607.71" y="138.19" width="264.46" height="306" fill="#e8c691"/><rect x="794.22" y="167.72" width="55.78" height="55.78" fill="#bf9e73"/><rect x="712.47" y="167.72" width="55.78" height="55.78" fill="#bf9e73"/><rect x="630.71" y="167.72" width="55.78" height="55.78" fill="#bf9e73"/><rect x="794.22" y="265.38" width="55.78" height="55.78" fill="#bf9e73"/><rect x="712.47" y="265.38" width="55.78" height="55.78" fill="#bf9e73"/><rect x="630.71" y="265.38" width="55.78" height="55.78" fill="#bf9e73"/><rect x="901.63" y="206.5" width="100.41" height="230.13" fill="#bcbced"/><rect x="928" y="232.9" width="74.04" height="58.28" fill="#8b8bbc"/><rect y="466" width="1002.04" height="287" fill="#bababa"/><rect y="277" width="1002.04" height="189" fill="#d6d6d6"/><rect y="271.44" width="1002.04" height="9.56" fill="#dfe3e8"/><rect y="245" width="1002.04" height="16" fill="#686868"/><rect y="245" width="1002.04" height="5.11" fill="#8a9399"/><rect x="22.07" y="261" width="11.77" height="16" fill="#686868"/><rect x="336.19" y="261" width="11.77" height="16" fill="#686868"/><rect x="650.32" y="261" width="11.77" height="16" fill="#686868"/><rect x="964.44" y="261" width="11.77" height="16" fill="#686868"/><circle cx="142.64" cy="95.21" r="21.54" fill="#f2f5f7"/><circle cx="168.14" cy="91.54" r="21.54" fill="#f2f5f7"/><circle cx="197.81" cy="101.04" r="21.54" fill="#f2f5f7"/><circle cx="224.48" cy="93.88" r="21.54" fill="#f2f5f7"/><circle cx="251.81" cy="87.38" r="21.54" fill="#f2f5f7"/><circle cx="280.89" cy="88.88" r="21.54" fill="#f2f5f7"/><circle cx="794.22" cy="87.38" r="21.54" fill="#f2f5f7"/><circle cx="815.77" cy="70" r="21.54" fill="#f2f5f7"/><circle cx="823.72" cy="89.76" r="21.54" fill="#f2f5f7"/><circle cx="852.56" cy="79.09" r="21.54" fill="#f2f5f7"/><circle cx="882.72" cy="92.79" r="21.54" fill="#f2f5f7"/><circle cx="856.56" cy="91.95" r="21.54" fill="#f2f5f7"/><circle cx="257.99" cy="70" r="21.54" fill="#f2f5f7"/><circle cx="224.48" cy="70" r="21.54" fill="#f2f5f7"/><circle cx="194.98" cy="71.33" r="21.54" fill="#f2f5f7"/><circle cx="167.48" cy="70" r="21.54" fill="#f2f5f7"/><circle cx="210.57" cy="60.67" r="21.54" fill="#f2f5f7"/></svg>